<svg width="152" height="43" viewBox="0 0 152 43" fill="none" xmlns="http://www.w3.org/2000/svg">
<path d="M77.9738 41.13H83.7313V24.9368C83.7313 21.0505 86.5279 17.9738 90.1469 17.9738C93.766 17.9738 96.8915 20.8885 96.8915 24.9368V41.13H103.143V24.613C103.143 17.6499 97.385 12.3062 91.1339 12.3062C88.8309 12.3062 85.8699 13.1158 83.7313 16.0306V12.9539H77.9738V41.13Z" fill="#111111"></path>
<path d="M136.866 12.3062C128.476 12.3062 121.896 18.9454 121.896 27.2039C121.896 35.6243 128.312 41.7777 136.866 41.7777C145.42 41.7777 152 35.6243 152 27.2039C152 18.9454 145.584 12.3062 136.866 12.3062ZM136.866 35.9482C132.095 35.9482 128.312 32.0618 128.312 27.2039C128.312 22.0221 132.26 18.2976 136.866 18.2976C141.801 18.2976 145.749 22.0221 145.749 27.2039C145.749 32.0618 141.965 35.9482 136.866 35.9482Z" fill="#111111"></path>
<path d="M120.909 41.1308V35.1393C116.632 37.2444 112.52 35.6251 112.52 30.9291V18.6223H120.251V12.9547H112.52V5.66772H106.433V29.9575C106.433 39.9973 113.342 43.3978 120.909 41.1308Z" fill="#111111"></path>
<path d="M59.5497 12.3062C51.16 12.3062 44.58 18.9454 44.58 27.2039C44.58 35.6243 50.9955 41.7777 59.5497 41.7777C68.1038 41.7777 74.6838 35.6243 74.6838 27.2039C74.6838 18.9454 68.2683 12.3062 59.5497 12.3062ZM59.5497 35.9482C54.7791 35.9482 50.9955 32.0618 50.9955 27.2039C50.9955 22.0221 54.7791 18.2976 59.5497 18.2976C64.4847 18.2976 68.4328 22.0221 68.4328 27.2039C68.4328 32.0618 64.4847 35.9482 59.5497 35.9482Z" fill="#111111"></path>
<path d="M20.8918 0C9.04762 0 0 8.90625 0 21.0511C0 32.7102 9.04762 41.9403 20.8918 41.9403C33.0649 41.9403 42.1126 32.7102 42.1126 21.2131C42.1126 8.90625 33.0649 0 20.8918 0ZM20.8918 35.625C12.6667 35.625 6.58009 29.4716 6.58009 21.0511C6.58009 12.3068 12.6667 5.82955 20.8918 5.82955C29.2814 5.82955 35.368 12.3068 35.368 20.8892C35.368 29.4716 29.2814 35.625 20.8918 35.625Z" fill="#111111"></path>
<path d="M41.1256 42.7504C29.2814 41.455 21.7143 35.6254 17.9308 24.6141L23.8529 22.6709C26.8139 31.4152 32.407 35.7874 41.7836 36.759L41.1256 42.7504Z" fill="#111111"></path>
</svg>